<?xml version="1.0" encoding="UTF-8" standalone="no"?>
<!-- Created with Inkscape (http://www.inkscape.org/) -->

<svg
   version="1.1"
   id="svg2"
   width="960"
   height="960"
   viewBox="0 0 960 960"
   sodipodi:docname="LOGO_notext.ai"
   xmlns:inkscape="http://www.inkscape.org/namespaces/inkscape"
   xmlns:sodipodi="http://sodipodi.sourceforge.net/DTD/sodipodi-0.dtd"
   xmlns="http://www.w3.org/2000/svg"
   xmlns:svg="http://www.w3.org/2000/svg">
  <defs
     id="defs6">
    <clipPath
       clipPathUnits="userSpaceOnUse"
       id="clipPath16">
      <path
         d="M 0,720 H 720 V 0 H 0 Z"
         id="path14" />
    </clipPath>
  </defs>
  <sodipodi:namedview
     id="namedview4"
     pagecolor="#ffffff"
     bordercolor="#000000"
     borderopacity="0.25"
     inkscape:showpageshadow="2"
     inkscape:pageopacity="0.0"
     inkscape:pagecheckerboard="0"
     inkscape:deskcolor="#d1d1d1" />
  <g
     id="g8"
     inkscape:groupmode="layer"
     inkscape:label="LOGO_notext"
     transform="matrix(1.3333333,0,0,-1.3333333,0,960)">
    <g
       id="g10">
      <g
         id="g12"
         clip-path="url(#clipPath16)">
        <g
           id="g18"
           transform="translate(492.8008,505.2266)">
          <path
             d="m 0,0 -142.151,-167.385 4.813,-1.175 c 46.915,-11.706 95.598,-13.669 142.683,-6.038 23.523,3.868 46.701,9.79 68.983,17.962 11.135,4.066 22.087,8.601 32.634,13.691 2.801,1.329 5.464,2.793 8.19,4.203 C 91.604,-89.722 52.371,-42.491 0,0"
             style="fill:#b9bf15;fill-opacity:1;fill-rule:nonzero;stroke:none"
             id="path20" />
        </g>
        <g
           id="g22"
           transform="translate(341.0835,287.3252)">
          <path
             d="m 0,0 -18.03,5.927 c -5.836,1.907 -11.752,3.489 -17.637,5.263 -11.857,3.089 -23.795,6.019 -35.878,8.124 -24.133,4.496 -48.686,6.632 -73.295,6.55 -24.57,-0.291 -49.222,-2.747 -73.337,-8.006 0.994,-12.147 2.325,-24.201 3.964,-36.155 6.93,0.096 13.874,0.004 20.825,-0.386 25.48,-1.326 51.049,-5.727 75.706,-13.382 12.412,-3.633 24.422,-8.437 36.354,-13.477 5.825,-2.771 11.786,-5.368 17.501,-8.385 l 16.32,-8.6 c 38.753,-20.728 80.763,-32.868 122.571,-33.914 15.734,-0.473 31.425,0.587 46.781,3.098 35.405,25.234 65.941,52.495 90.99,81.094 C 196.844,-15.4 180.717,-17.771 164.51,-19.194 108.878,-24.003 52.37,-17.344 0,0"
             style="fill:#009abf;fill-opacity:1;fill-rule:nonzero;stroke:none"
             id="path24" />
        </g>
        <g
           id="g26"
           transform="translate(249.8755,185.6221)">
          <path
             d="m 0,0 c -4.523,3.051 -9.264,5.698 -13.91,8.576 -9.528,5.23 -19.187,10.383 -29.295,14.508 -20.063,8.645 -41.343,14.68 -63.201,18.146 -3.198,0.521 -6.435,0.853 -9.659,1.252 10.883,-53.615 28.38,-104.575 52.127,-151.098 2.198,0.424 4.396,0.856 6.586,1.297 56.836,11.422 112.015,29.757 163.66,53.838 -33.012,10.166 -64.067,25.288 -91.903,43.892 z"
             style="fill:#009abf;fill-opacity:1;fill-rule:nonzero;stroke:none"
             id="path28" />
        </g>
        <g
           id="g30"
           transform="translate(456.3242,532.5894)">
          <path
             d="m 0,0 c -76.965,53.392 -168.157,91.777 -263.792,110.994 -2.198,0.444 -4.397,0.877 -6.595,1.301 -11.19,-21.918 -20.959,-44.839 -29.34,-68.538 l 220.57,-136.966 z"
             style="fill:#b9d9ec;fill-opacity:1;fill-rule:nonzero;stroke:none"
             id="path32" />
        </g>
        <g
           id="g34"
           transform="translate(275.8018,351.4697)">
          <path
             d="m 0,0 c 8.057,-0.759 16.063,-1.88 24.053,-3.126 l 47.514,55.95 -204.698,127.111 c -14.518,-54.168 -22.046,-111.628 -22.046,-170.457 0,-7.398 0.153,-14.767 0.389,-22.118 23.918,6.758 48.494,11.163 73.316,13.425 C -54.407,3.043 -27.076,2.838 0,0"
             style="fill:#b9bf15;fill-opacity:1;fill-rule:nonzero;stroke:none"
             id="path36" />
        </g>
        <g
           id="g38"
           transform="translate(462.9287,193.9824)">
          <path
             d="m 0,0 c -15.356,-2.511 -31.047,-3.571 -46.781,-3.099 -41.808,1.047 -83.819,13.187 -122.572,33.914 l -16.319,8.601 c -5.715,3.017 -11.676,5.613 -17.501,8.385 -11.932,5.04 -23.942,9.844 -36.354,13.476 -24.657,7.656 -50.226,12.057 -75.706,13.383 -6.952,0.39 -13.895,0.482 -20.826,0.386 -1.638,11.954 -2.969,24.008 -3.963,36.155 24.115,5.259 48.767,7.715 73.336,8.006 24.609,0.082 49.163,-2.055 73.295,-6.55 12.083,-2.105 24.021,-5.035 35.879,-8.124 5.885,-1.774 11.801,-3.356 17.637,-5.263 l 18.03,-5.927 C -69.476,75.999 -12.967,69.34 42.665,74.148 58.872,75.572 74.999,77.942 90.99,81.094 65.94,52.495 35.404,25.233 0,0 m -270.405,-115.68 c -2.19,-0.44 -4.388,-0.873 -6.587,-1.297 -23.746,46.524 -41.243,97.484 -52.126,151.099 3.223,-0.399 6.46,-0.731 9.659,-1.252 21.857,-3.467 43.138,-9.502 63.201,-18.146 10.108,-4.125 19.766,-9.279 29.295,-14.508 4.646,-2.878 9.386,-5.526 13.91,-8.576 l 14.405,-9.589 c 27.836,-18.605 58.891,-33.727 91.903,-43.893 -51.645,-24.08 -106.824,-42.416 -163.66,-53.838 m -6.587,566.582 c 2.199,-0.424 4.397,-0.857 6.596,-1.301 95.634,-19.217 186.827,-57.602 263.792,-110.994 l -79.158,-93.21 -220.569,136.967 c 8.381,23.698 18.15,46.62 29.339,68.538 m -65.312,-283.937 c 0,58.829 7.528,116.289 22.046,170.457 l 204.698,-127.11 -47.514,-55.951 c -7.99,1.246 -15.996,2.368 -24.053,3.126 -27.076,2.838 -54.407,3.043 -81.472,0.785 -24.822,-2.261 -49.398,-6.667 -73.316,-13.424 -0.236,7.35 -0.389,14.719 -0.389,22.117 m 487.328,5.537 c -2.726,-1.41 -5.389,-2.874 -8.19,-4.203 -10.547,-5.09 -21.499,-9.625 -32.634,-13.691 -22.282,-8.171 -45.46,-14.094 -68.983,-17.962 -47.085,-7.63 -95.768,-5.667 -142.683,6.039 l -4.813,1.174 142.151,167.385 c 52.371,-42.491 91.604,-89.722 115.152,-138.742 m 48.508,3.192 C 163.28,248.535 103.303,317.634 20.071,375.527 v 0.004 c -82.18,57.162 -179.523,98.208 -281.488,118.696 -8.083,1.629 -16.165,3.132 -24.239,4.478 -9.512,1.596 -19.042,-3.019 -23.697,-11.501 -1.706,-3.112 -3.354,-6.284 -5.003,-9.456 l -0.978,-1.875 c -47.418,-91.055 -72.49,-197.874 -72.49,-308.908 0,-12.709 0.37,-25.353 1.022,-37.934 0.538,-10.355 1.318,-20.653 2.293,-30.899 0.862,-9.072 1.893,-18.096 3.096,-27.069 1.584,-11.825 3.468,-23.551 5.635,-35.178 11.79,-63.26 32.087,-123.375 60.444,-177.823 l 0.962,-1.856 c 1.657,-3.184 3.313,-6.368 5.027,-9.488 4.041,-7.359 11.736,-11.804 19.939,-11.804 1.237,0 2.489,0.101 3.742,0.307 8.074,1.345 16.157,2.849 24.239,4.473 80.528,16.184 158.133,45.23 227.699,84.866 18.527,10.554 36.515,21.817 53.797,33.838 21.181,14.734 40.837,30.2 58.899,46.261 34.369,30.561 62.869,63.308 84.826,97.386 9.649,14.977 18.018,30.21 25.067,45.631 1.606,3.512 3.202,7.028 4.669,10.56 2.321,5.589 2.321,11.869 0,17.458"
             style="fill:#332e20;fill-opacity:1;fill-rule:nonzero;stroke:none"
             id="path40" />
        </g>
      </g>
    </g>
  </g>
</svg>
